# xmcd CD database file
#
# Track frame offsets:
#	150
#	196351
#	232385
#
# Disc length: 3502 seconds
#
# Revision: 0
# Processed by: cddbd v1.5.2PL0 Copyright (c) Steve Scherf et al.
# Submitted via: CDex 1.70beta3
#
DISCID=270dac03
DTITLE=Peter Brotzmann - John Edwards - Steve Noble - Soul Food Available
DYEAR=2013
DGENRE=Jazz
TTITLE0=Soul Food Available
TTITLE1=Don't Fly Away
TTITLE2=Nail Dogs by Ears
EXTD=YEAR: 2013
EXTT0=
EXTT1=
EXTT2=
PLAYORDER=
